<?xml version="1.0" encoding="UTF-8" standalone="no"?>
<!DOCTYPE svg PUBLIC "-//W3C//DTD SVG 1.1//EN" "http://www.w3.org/Graphics/SVG/1.1/DTD/svg11.dtd">
<svg version="1.1" xmlns="http://www.w3.org/2000/svg" xmlns:xlink="http://www.w3.org/1999/xlink" preserveAspectRatio="xMidYMid meet" viewBox="0 0 400 400" width="40" height="40"><defs><path d="M169.67 23.36C173.63 21.75 178.14 23.65 179.75 27.61C198.21 73.05 250.69 202.21 269.16 247.66C270.76 251.61 268.86 256.12 264.9 257.73C232.98 270.7 144.39 306.7 112.47 319.66C108.51 321.27 104 319.37 102.4 315.41C83.93 269.97 31.45 140.81 12.99 95.36C11.38 91.41 13.28 86.9 17.24 85.29C49.16 72.32 137.75 36.32 169.67 23.36Z" id="b9GwR6FA9"></path><mask id="maskaqoOyKU6e" x="-19.59" y="-9.22" width="321.31" height="361.45" maskUnits="userSpaceOnUse"><rect x="-19.59" y="-9.22" width="321.31" height="361.45" fill="white"></rect><use xlink:href="#b9GwR6FA9" opacity="1" fill="black"></use></mask><path d="M280.47 67.87C284.74 67.87 288.2 71.33 288.2 75.6C288.2 124.65 288.2 264.07 288.2 313.12C288.2 317.39 284.74 320.85 280.47 320.85C246.02 320.85 150.38 320.85 115.93 320.85C111.66 320.85 108.2 317.39 108.2 313.12C108.2 264.07 108.2 124.65 108.2 75.6C108.2 71.33 111.66 67.87 115.93 67.87C150.38 67.87 246.02 67.87 280.47 67.87Z" id="e22w9p6XSh"></path><mask id="maskb7sU02UoI8" x="76.2" y="35.87" width="244" height="316.98" maskUnits="userSpaceOnUse"><rect x="76.2" y="35.87" width="244" height="316.98" fill="white"></rect><use xlink:href="#e22w9p6XSh" opacity="1" fill="black"></use></mask><path d="M348 119.47C352.11 120.62 354.51 124.89 353.36 129C340.11 176.22 302.44 310.46 289.19 357.69C288.04 361.8 283.77 364.19 279.66 363.04C246.49 353.73 154.41 327.9 121.24 318.59C117.13 317.44 114.73 313.17 115.88 309.06C129.14 261.83 166.8 127.6 180.05 80.37C181.2 76.26 185.47 73.86 189.58 75.02C222.75 84.32 314.83 110.16 348 119.47Z" id="e1j4kj1jAD"></path><mask id="maskc3kNcbhg29" x="83.59" y="42.73" width="302.05" height="352.6" maskUnits="userSpaceOnUse"><rect x="83.59" y="42.73" width="302.05" height="352.6" fill="white"></rect><use xlink:href="#e1j4kj1jAD" opacity="1" fill="black"></use></mask></defs><g><g><g><use xlink:href="#b9GwR6FA9" opacity="1" fill="#000000" fill-opacity="1"></use><g mask="url(#maskaqoOyKU6e)"><use xlink:href="#b9GwR6FA9" opacity="1" fill-opacity="0" stroke="#ffffff" stroke-width="32" stroke-opacity="1"></use></g></g><g><use xlink:href="#e22w9p6XSh" opacity="1" fill="#000000" fill-opacity="1"></use><g mask="url(#maskb7sU02UoI8)"><use xlink:href="#e22w9p6XSh" opacity="1" fill-opacity="0" stroke="#ffffff" stroke-width="32" stroke-opacity="1"></use></g></g><g><use xlink:href="#e1j4kj1jAD" opacity="1" fill="#000000" fill-opacity="1"></use><g mask="url(#maskc3kNcbhg29)"><use xlink:href="#e1j4kj1jAD" opacity="1" fill-opacity="0" stroke="#ffffff" stroke-width="32" stroke-opacity="1"></use></g></g></g></g></svg>